<?xml version="1.0" ?><svg height="600mm" id="svg4658" version="1.1" viewBox="0 0 2125.9843 2125.9842" width="600mm" xmlns="http://www.w3.org/2000/svg" xmlns:cc="http://creativecommons.org/ns#" xmlns:dc="http://purl.org/dc/elements/1.1/" xmlns:inkscape="http://www.inkscape.org/namespaces/inkscape" xmlns:rdf="http://www.w3.org/1999/02/22-rdf-syntax-ns#" xmlns:sodipodi="http://sodipodi.sourceforge.net/DTD/sodipodi-0.dtd" xmlns:svg="http://www.w3.org/2000/svg"><defs id="defs4660"/><g id="layer1" transform="translate(0,1073.6222)"><path d="m 149.44309,-293.4434 1582.92051,0 c 69.6345,0 125.6945,61.69718 125.6945,138.33445 L 939.69802,513.10144 23.749792,-155.10895 c 0,-76.63727 56.058835,-138.33445 125.693298,-138.33445 z" id="path4732" style="opacity:1;fill:#989691;fill-opacity:1;stroke:none;stroke-width:1;stroke-miterlimit:4;stroke-dasharray:none;stroke-opacity:1"/><path d="m 940.04854,-889.58836 c -13.80808,-0.0812 -24.34217,8.18536 -35.92168,15.70521 -248.9059,161.63733 -678.56034,488.17155 -827.4348,602.23775 -16.335529,12.51595 -25.101025,25.1528 -29.806623,34.79276 -14.362769,22.48957 -22.783894,49.93923 -22.783894,79.63602 l 1834.307157,0 c 0,-33.32069 -10.6018,-63.81558 -28.305,-87.64476 -6.7164,-9.65139 -15.5889,-19.78773 -27.1561,-28.56405 -151.9591,-115.30127 -580.0959,-437.7858 -827.184,-600.0157 -11.55491,-7.58589 -21.89344,-16.06556 -35.71506,-16.14723 z" id="path4734" style="opacity:1;fill:#ebeae3;fill-opacity:1;stroke:none;stroke-width:1;stroke-miterlimit:4;stroke-dasharray:none;stroke-opacity:1"/><path d="m 1857.7593,-156.10541 z m 0,0 0,1033.83416 c 0,70.91799 -56.0589,128.01295 -125.6933,128.01295 l -1582.91931,0 792.66553,-493.63672 z" id="path4736" style="opacity:1;fill:#eeede9;fill-opacity:1;stroke:none;stroke-width:1;stroke-miterlimit:4;stroke-dasharray:none;stroke-opacity:1"/><path d="m 22.642882,-159.61936 z m 0,0 0,1033.83416 c 0,70.918 56.057605,128.013 125.692068,128.013 l 1582.91925,0 -792.66555,-493.63677 z" id="path4738" style="opacity:1;fill:#e9e7e0;fill-opacity:1;stroke:none;stroke-width:1;stroke-miterlimit:4;stroke-dasharray:none;stroke-opacity:1"/><circle cx="1790.2266" cy="-194.76262" id="path4740" r="327.99002" style="opacity:1;fill:#ef2929;fill-opacity:1;stroke:none;stroke-width:20;stroke-miterlimit:4;stroke-dasharray:none;stroke-opacity:0.63372091"/><path d="m 1787.896,-432.15914 c -23.3631,0 -44.1743,16.50452 -56.3183,34.96471 -17.7499,26.98068 -14.8436,63.52862 -14.3431,95.82038 0.8277,53.33645 8.3486,108.36845 28.5854,157.45412 11.3556,27.54323 21.7593,52.75176 44.5555,52.669234 20.1569,-0.07256 33.8727,-29.629644 40.5609,-51.602664 16.1314,-53.00155 31.8359,-103.21123 32.5788,-158.52069 0.4661,-34.60508 1.5632,-74.33576 -19.1815,-102.03789 -12.6545,-16.89945 -34.4052,-28.7472 -56.4377,-28.7472 z m 3.7193,383.056492 a 45.867663,45.867663 0 0 0 -45.8679,45.8681253 45.867663,45.867663 0 0 0 45.8679,45.8680147 45.867663,45.867663 0 0 0 45.8678,-45.8680147 45.867663,45.867663 0 0 0 -45.8678,-45.8681253 z" id="path4765" style="opacity:1;fill:#ffffff;fill-opacity:1;stroke:none;stroke-width:20;stroke-miterlimit:4;stroke-dasharray:none;stroke-opacity:0.63372091"/></g><g id="layer2"/></svg>