<?xml version="1.0" encoding="utf-8"?>
<!-- Generator: Adobe Illustrator 19.0.0, SVG Export Plug-In . SVG Version: 6.00 Build 0)  -->
<svg version="1.1" id="Layer_1" xmlns="http://www.w3.org/2000/svg" xmlns:xlink="http://www.w3.org/1999/xlink" x="0px" y="0px"
	 viewBox="0 0 256 256" style="enable-background:new 0 0 256 256;" xml:space="preserve">
<style type="text/css">
	.st0{opacity:0.35;fill:none;stroke:#FF0000;stroke-miterlimit:10;}
	.st1{opacity:0.35;enable-background:new    ;}
	.st2{fill:none;stroke:#000000;stroke-linecap:round;stroke-linejoin:round;stroke-miterlimit:10;}
</style>
<rect id="XMLID_2_" x="0.5" y="0.5" class="st0" width="255" height="255"/>
<line id="XMLID_3_" class="st0" x1="0.5" y1="0.5" x2="255.5" y2="255.5"/>
<line id="XMLID_4_" class="st0" x1="255.5" y1="0.5" x2="0.5" y2="255.5"/>
<g class="st1">
	<path class="st2" d="M57.8,104.3c-4.8,0-7.7-0.2-7.7-7.7c0-6.8,2.9-6.9,7.7-6.9h0.7c5,0,8.1,1.2,8.4,6.1h-2.5
		c-0.2-3.2-2.3-3.6-4.6-3.6h-1.2c-3.1,0-5.8,0.1-5.8,4.4c0,5,1.3,5.3,5.8,5.3h0.1h0.6c4.7,0,7.6,0.2,7.6,7.8c0,8.5-2.9,8.7-7.6,8.7
		h-0.8H58c-4.9,0-7.7-0.1-7.9-6.1h2.5c0.3,3.5,2.9,3.6,5.7,3.6h0.1c3.2,0,5.9-0.2,5.9-6.2c0-5-1.3-5.3-5.7-5.3h-0.2h-0.6V104.3z"/>
	<path class="st2" d="M73.3,118.9V89h8.3c6.4,0,6.5,7.2,6.5,7.4c0,0.2-0.1,3.7-2.2,4.9l-1,0.5l1,0.5c4,2.2,4.1,7.1,4.1,7.2
		c0,0.4-0.2,9.3-8.4,9.3L73.3,118.9L73.3,118.9z M81.6,101.3c4,0,4-4.6,4-4.6s0-4.6-4-4.6h-5.8v9.2H81.6z M75.8,115.8h5.8
		c5.8,0,5.9-6.5,5.9-6.5s0-6.4-5.9-6.4h-5.8V115.8z"/>
	<path class="st2" d="M110.7,88.4h2.5v21v2.4c0,6.2-0.3,6.5-6.1,6.5h-2.3c-8.3,0-8.3-8.8-8.3-8.9v-21H99v21c0,0,0,6.4,5.8,6.4
		c5.4,0,5.9-0.5,5.9-6.4C110.7,109.4,110.7,88.4,110.7,88.4z"/>
	<path class="st2" d="M123.9,112l2.8-12.7h2.4l2.8,12.7l1.7-23.1h2.5l-2.3,30h-2.7l-3.3-15.3l-3.3,15.3h-2.7l-2.3-30h2.5L123.9,112z
		"/>
	<path class="st2" d="M152.2,89l6.9,30h-2.6l-2.1-8.5h-7.1l-2,8.5h-2.6l6.9-30H152.2z M153.9,107.9l-3-14.4l-2.9,14.4H153.9z"/>
	<path class="st2" d="M166,89h8.3c8.1,0,8.4,14.5,8.4,15s-0.3,15-8.4,15H166V89z M168.5,115.8h5.8c5.7,0,5.9-10.4,5.9-11.7V104v-0.1
		c0-1.1-0.2-11.8-5.9-11.8h-5.8V115.8z"/>
	<path class="st2" d="M205.9,113.1c-0.4,5.2-5.2,5.2-8.4,5.2c-4.7,0-8.3-3.1-8.3-14.4s3.6-14.4,8.3-14.4c3.2,0,8,0,8.4,5.2h-2.5
		c-0.5-2.6-3.7-2.7-5.2-2.7h-0.5h-0.1c-3.7,0-5.8,3.4-5.8,11.9s2.1,11.9,5.8,11.9h0.1h0.4c1.6,0,4.8-0.1,5.4-2.7H205.9z"/>
</g>
<g class="st1">
	<path class="st2" d="M84.9,125h2.5v27.5l14.2,0.1v2.4H84.9V125z"/>
	<path class="st2" d="M117.2,125.6c4.5,0,7.5,0.4,7.5,15s-3,15-7.5,15h-0.8h-0.8c-4.5,0-7.5-0.4-7.5-15s3-15,7.5-15h0.8
		C116.4,125.6,117.2,125.6,117.2,125.6z M116.4,128.7c-3.5,0-5.8,0.5-5.8,11.9c0,11.3,2.4,11.9,5.8,11.9c3.5,0,5.9-0.5,5.9-11.9
		C122.3,129.3,119.8,128.7,116.4,128.7z"/>
	<path class="st2" d="M144.8,141.2c0.2,0,3.1,0.1,3.1,3.1v5.2c0,6-5.1,6-8.4,6c-4.7,0-8.3-3.2-8.3-14.9c0-11.3,3.6-14.4,8.3-14.4
		c3.2,0,8,0,8.4,5.3h-2.5c-0.5-2.7-3.7-2.8-5.3-2.8h-0.5h-0.1c-3.7,0-5.8,3.4-5.8,11.9s2.1,11.9,5.8,11.9h0.1h0.3
		c1.7,0,5.5-0.1,5.5-3.3v-5.5h-5.3v-2.5L144.8,141.2L144.8,141.2z"/>
	<path class="st2" d="M163.6,125.6c4.5,0,7.5,0.4,7.5,15s-3,15-7.5,15h-0.8H162c-4.5,0-7.5-0.4-7.5-15s3-15,7.5-15h0.8
		C162.8,125.6,163.6,125.6,163.6,125.6z M162.7,128.7c-3.5,0-5.8,0.5-5.8,11.9c0,11.3,2.4,11.9,5.8,11.9c3.5,0,5.9-0.5,5.9-11.9
		C168.6,129.3,166.2,128.7,162.7,128.7z"/>
</g>
</svg>
